<svg xmlns="http://www.w3.org/2000/svg" height="24px" viewBox="0 -960 960 960" width="24px" fill="#e8eaed"><path d="M 880,-80 720,-240 H 320 c -22,0 -40.83333,-7.83333 -56.5,-23.5 C 247.83333,-279.16667 240,-298 240,-320 v -40 h 440 c 22,0 40.83333,-7.83333 56.5,-23.5 15.66667,-15.66667 23.5,-34.5 23.5,-56.5 v -280 h 40 c 22,0 40.83333,7.83333 56.5,23.5 15.66667,15.66667 23.5,34.5 23.5,56.5 z M 80,-280 v -520 c 0,-22 7.833333,-40.83333 23.5,-56.5 15.66667,-15.66667 34.5,-23.5 56.5,-23.5 h 440 c 22,0 40.83333,7.83333 56.5,23.5 15.66667,15.66667 23.5,34.5 23.5,56.5 v 280 c 0,22 -7.83333,40.83333 -23.5,56.5 C 640.83333,-447.83333 622,-440 600,-440 H 240 Z"/></svg>