<?xml version="1.0" encoding="UTF-8" standalone="no"?>
<svg
   height="24px"
   viewBox="0 -960 960 960"
   width="24px"
   fill="#000000"
   version="1.1"
   id="svg1"
   sodipodi:docname="file.svg"
   inkscape:export-filename="file.svg"
   inkscape:export-xdpi="96"
   inkscape:export-ydpi="96"
   inkscape:version="1.3.2 (091e20e, 2023-11-25, custom)"
   xmlns:inkscape="http://www.inkscape.org/namespaces/inkscape"
   xmlns:sodipodi="http://sodipodi.sourceforge.net/DTD/sodipodi-0.dtd"
   xmlns="http://www.w3.org/2000/svg"
   xmlns:svg="http://www.w3.org/2000/svg">
  <defs
     id="defs1" />
  <sodipodi:namedview
     id="namedview1"
     pagecolor="#ffffff"
     bordercolor="#999999"
     borderopacity="1"
     inkscape:showpageshadow="2"
     inkscape:pageopacity="0"
     inkscape:pagecheckerboard="0"
     inkscape:deskcolor="#d1d1d1"
     inkscape:zoom="33.875"
     inkscape:cx="12"
     inkscape:cy="12"
     inkscape:window-width="1920"
     inkscape:window-height="1009"
     inkscape:window-x="-8"
     inkscape:window-y="-8"
     inkscape:window-maximized="1"
     inkscape:current-layer="svg1" />
  <path
     d="m 660.92251,-378.26569 c 0,47.02386 -17.60979,87.03936 -52.82937,120.0465 -35.21959,33.00714 -77.9173,49.5107 -128.09314,49.5107 -50.17584,0 -92.87355,-16.50356 -128.09314,-49.5107 -35.21958,-33.00714 -52.82937,-73.02264 -52.82937,-120.0465 v -250.94464 c 0,-33.91145 12.66458,-62.73617 37.99373,-86.47418 25.32915,-23.738 56.08598,-35.607 92.27048,-35.607 36.1845,0 66.94133,11.869 92.27048,35.607 25.32914,23.73801 37.99373,52.56273 37.99373,86.47418 v 237.38007 c 0,20.79902 -7.71937,38.43296 -23.15809,52.90184 -15.43871,14.46888 -34.25466,21.70333 -56.44782,21.70333 -22.19316,0 -41.00911,-7.23445 -56.44782,-21.70333 -15.43872,-14.46888 -23.15809,-32.10282 -23.15809,-52.90184 v -250.94465 l 35.67712,0.80086 -1.70907,249.34293 c -0.0403,5.87786 8.88678,29.95927 12.98769,33.80256 4.10091,3.84331 26.37819,15.37528 32.65017,15.37528 6.27198,0 33.67651,-13.93456 37.77742,-17.77785 4.10091,-3.8433 4.46359,-24.72118 4.44228,-30.59913 l -0.85454,-235.77836 c -0.48247,-18.9904 -8.45328,-49.4573 -22.20339,-62.56973 -13.75012,-13.11242 -46.99312,-30.88067 -67.25645,-30.88067 -20.26331,0 -58.75419,16.96739 -72.74553,30.07981 -13.99134,13.11243 -21.1176,42.77886 -20.98702,61.76888 l 1.70909,248.54206 c -0.48245,32.10283 14.75598,69.75621 38.87898,92.13776 24.123,22.38155 67.83905,41.58093 102.0937,41.58093 33.77221,0 73.58762,-14.39421 97.22816,-36.77577 23.64054,-22.38155 44.48869,-61.63664 45.4536,-93.73947 l 0.85456,-265.31009 h 36.53165 z"
     id="path1"
     sodipodi:nodetypes="sssssssssssssssccssssscsssscssscccs"
     style="stroke-width:0.700591" />
</svg>
